# xmcd
#
# Track frame offsets:
#	150
#	15269
#	27211
#	45734
#	60191
#	74640
#	88892
#	107911
#	122828
#	135937
#	150633
#	164956
#	178014
#
# Disc length: 2558 seconds
#
# Revision: 2
# Processed by: cddbd v1.5.2PL0 Copyright (c) Steve Scherf et al.
# Submitted via: dBpowerAMP V4.0
#
DISCID=ac09fc0d
DTITLE=Gino e geno - Pode chamar nóis
DYEAR=2009
DGENRE=Sertanejo
TTITLE0=Tô voltando
TTITLE1=Com dinheiro é mole
TTITLE2=Só dou amor
TTITLE3=Pode chamar nóis
TTITLE4=Enche a cara e chora
TTITLE5=Outro porre
TTITLE6=Sina
TTITLE7=Tá no papo
TTITLE8=Quem te ligou
TTITLE9=Aí é só bebendo
TTITLE10=Tá na mão
TTITLE11=Fica nervoso não
TTITLE12=Cachaceiro
EXTD=
EXTT0=
EXTT1=
EXTT2=
EXTT3=
EXTT4=
EXTT5=
EXTT6=
EXTT7=
EXTT8=
EXTT9=
EXTT10=
EXTT11=
EXTT12=
PLAYORDER=
